{"title":"Jai Ho (2014) 2CD DvDRip XviD AC3 5.1 ESub [Team ExDR]","uid":9724035,"size":1477494353,"categoryP":"video","categoryS":"movies","magnet":"?xt=urn:btih:f0975868acb6bd26f0a6e2297ca1915f678b5fe3&amp;dn=Jai+Ho+%282014%29+2CD+DvDRip+XviD+AC3+5.1+ESub+%5BTeam+ExDR%5D&amp;tr=udp%3A%2F%2Ftracker.openbittorrent.com%3A80&amp;tr=udp%3A%2F%2Fopen.demonii.com%3A1337&amp;tr=udp%3A%2F%2Ftracker.coppersurfer.tk%3A6969&amp;tr=udp%3A%2F%2Fexodus.desync.com%3A6969","seeders":1,"leechers":0,"uploader":"CoreOfLore","files":3,"time":1394276766,"description":"MediaInfo: \n\nGeneral\nComplete name : Jai Ho (2014) 2CD DvDRip XviD AC3 5.1 ESub Pakistani Bacha [Team ExDR]\nFormat : AVI\nFormat/Info : Audio Video Interleave\nFormat profile : OpenDML\nFormat settings : rec\nFile size : 1.37 GiB\nDuration : 2h 21mn\nOverall bit rate : 1 388 Kbps\nWriting application : AVI-Mux GUI 1.17.8.3, Feb 16 201019:42:50\nSource : Team ExDR !!!!\nEncoder : Pakistani Bacha\n\nVideo\nID : 0\nFormat : MPEG-4 Visual\nFormat profile : Advanced Simple@L5\nFormat settings, BVOP : 2\nFormat settings, QPel : No\nFormat settings, GMC : No warppoints\nFormat settings, Matrix : Default (H.263)\nCodec ID : XVID\nCodec ID/Hint : XviD\nDuration : 2h 21mn\nBit rate : 1 255 Kbps\nWidth : 720 pixels\nHeight : 304 pixels\nDisplay aspect ratio : 2.35:1\nFrame rate : 23.976 fps\nColor space : YUV\nChroma subsampling : 4:2:0\nBit depth : 8 bits\nScan type : Progressive\nCompression mode : Lossy\nBits/(Pixel*Frame) : 0.239\nStream size : 1.24 GiB (90%)\nWriting library : XviD 1.2.1 (UTC 2008-12-04)\n\nAudio\nID : 1\nFormat : AC-3\nFormat/Info : Audio Coding 3\nMode extension : CM (complete main)\nFormat settings, Endianness : Big\nCodec ID : 2000\nDuration : 2h 21mn\nBit rate mode : Constant\nBit rate : 128 Kbps\nChannel(s) : 6 channels\nChannel positions : Front: L C R, Side: L R, LFE\nSampling rate : 48.0 KHz\nBit depth : 16 bits\nCompression mode : Lossy\nStream size : 129 MiB (9%)\nAlignment : Aligned on interleaves\nInterleave, duration : 64 ms (1.53 video frames)\n\n\n\nScreens:\n &lt;a href=&quot;\nhttp://img541.imageshack.us/img541/9331/fafq.png&quot; rel=&quot;nofollow&quot; target=&quot;_NEW&quot;&gt;\nhttp://img541.imageshack.us/img541/9331/fafq.png&lt;/a&gt; &lt;a href=&quot;\nhttp://img36.imageshack.us/img36/2807/uwcb.png&quot; rel=&quot;nofollow&quot; target=&quot;_NEW&quot;&gt;\nhttp://img36.imageshack.us/img36/2807/uwcb.png&lt;/a&gt; &lt;a href=&quot;\nhttp://img69.imageshack.us/img69/8677/fovx.png&quot; rel=&quot;nofollow&quot; target=&quot;_NEW&quot;&gt;\nhttp://img69.imageshack.us/img69/8677/fovx.png&lt;/a&gt; &lt;a href=&quot;\nhttp://img716.imageshack.us/img716/2671/mh6r.png&quot; rel=&quot;nofollow&quot; target=&quot;_NEW&quot;&gt;\nhttp://img716.imageshack.us/img716/2671/mh6r.png&lt;/a&gt; &lt;a href=&quot;\nhttp://img560.imageshack.us/img560/3461/23uo.png&quot; rel=&quot;nofollow&quot; target=&quot;_NEW&quot;&gt;\nhttp://img560.imageshack.us/img560/3461/23uo.png&lt;/a&gt; &lt;a href=&quot;\nhttp://img198.imageshack.us/img198/3486/eyse.png&quot; rel=&quot;nofollow&quot; target=&quot;_NEW&quot;&gt;\nhttp://img198.imageshack.us/img198/3486/eyse.png&lt;/a&gt; &lt;a href=&quot;\nhttp://img138.imageshack.us/img138/6167/65zh.png&quot; rel=&quot;nofollow&quot; target=&quot;_NEW&quot;&gt;\nhttp://img138.imageshack.us/img138/6167/65zh.png&lt;/a&gt; &lt;a href=&quot;\nhttp://img543.imageshack.us/img543/2423/alic.png&quot; rel=&quot;nofollow&quot; target=&quot;_NEW&quot;&gt;\nhttp://img543.imageshack.us/img543/2423/alic.png&lt;/a&gt; &lt;a href=&quot;\nhttp://img46.imageshack.us/img46/9906/he1u.png&quot; rel=&quot;nofollow&quot; target=&quot;_NEW&quot;&gt;\nhttp://img46.imageshack.us/img46/9906/he1u.png&lt;/a&gt; &lt;a href=&quot;\nhttp://img855.imageshack.us/img855/6454/iuxo.png&quot; rel=&quot;nofollow&quot; target=&quot;_NEW&quot;&gt;\nhttp://img855.imageshack.us/img855/6454/iuxo.png&lt;/a&gt; &lt;a href=&quot;\nhttp://img33.imageshack.us/img33/5602/kt1g.png&quot; rel=&quot;nofollow&quot; target=&quot;_NEW&quot;&gt;\nhttp://img33.imageshack.us/img33/5602/kt1g.png&lt;/a&gt; &lt;a href=&quot;\nhttp://img401.imageshack.us/img401/8976/dxzv.png&quot; rel=&quot;nofollow&quot; target=&quot;_NEW&quot;&gt;\nhttp://img401.imageshack.us/img401/8976/dxzv.png&lt;/a&gt; &lt;a href=&quot;\nhttp://img849.imageshack.us/img849/7052/mocm.png&quot; rel=&quot;nofollow&quot; target=&quot;_NEW&quot;&gt;\nhttp://img849.imageshack.us/img849/7052/mocm.png&lt;/a&gt;\n\n\n\nNote: -\n... 100% A/V SYNC CHECKED!!! ...\n...ExDR Holla..","torrent":{"xt":"urn:btih:f0975868acb6bd26f0a6e2297ca1915f678b5fe3","amp;dn":"Jai+Ho+%282014%29+2CD+DvDRip+XviD+AC3+5.1+ESub+%5BTeam+ExDR%5D","amp;tr":["udp%3A%2F%2Ftracker.openbittorrent.com%3A80","udp%3A%2F%2Fopen.demonii.com%3A1337","udp%3A%2F%2Ftracker.coppersurfer.tk%3A6969","udp%3A%2F%2Fexodus.desync.com%3A6969"],"infoHash":"f0975868acb6bd26f0a6e2297ca1915f678b5fe3","infoHashBuffer":{"type":"Buffer","data":[240,151,88,104,172,182,189,38,240,166,226,41,124,161,145,95,103,139,95,227]},"announce":[],"urlList":[]}}